<?xml version="1.0" encoding="UTF-8"?>
<svg width="800" height="400" xmlns="http://www.w3.org/2000/svg">
  <style>
    text { font-family: -apple-system, BlinkMacSystemFont, 'Segoe UI', Roboto, sans-serif; }
  </style>
  <rect width="800" height="400" fill="white"/>

  <!-- Title -->
  <text x="400" y="30" text-anchor="middle" font-size="16" font-weight="bold" fill="#333">WebGPU Speedup over WASM</text>

  <!-- Y-axis label -->
  <text x="20" y="200" text-anchor="middle" font-size="12" fill="#666" transform="rotate(-90, 20, 200)">Speedup (WebGPU / WASM)</text>

  <!-- Axes -->
  <line x1="80" y1="60" x2="80" y2="320" stroke="#333" stroke-width="1"/>
  <line x1="80" y1="320" x2="760" y2="320" stroke="#333" stroke-width="1"/>

  <line x1="80" y1="284.52933151432467" x2="760" y2="284.52933151432467" stroke="#ff6b6b" stroke-width="2" stroke-dasharray="5,5"/><line x1="80" y1="284.52933151432467" x2="760" y2="284.52933151432467" stroke="#e0e0e0" stroke-width="1"/><line x1="80" y1="249.0586630286494" x2="760" y2="249.0586630286494" stroke="#e0e0e0" stroke-width="1"/><line x1="80" y1="213.58799454297406" x2="760" y2="213.58799454297406" stroke="#e0e0e0" stroke-width="1"/><line x1="80" y1="178.11732605729875" x2="760" y2="178.11732605729875" stroke="#e0e0e0" stroke-width="1"/><line x1="80" y1="142.64665757162345" x2="760" y2="142.64665757162345" stroke="#e0e0e0" stroke-width="1"/><line x1="80" y1="71.70532060027284" x2="760" y2="71.70532060027284" stroke="#e0e0e0" stroke-width="1"/><rect x="108.33333333333333" y="284.52933151432467" width="56.666666666666664" height="11.811732605729876" fill="#ea4335" rx="2"/><text x="136.66666666666666" y="311.34106412005457" text-anchor="middle" font-size="11" font-weight="bold" fill="#ea4335">0.83x</text><rect x="221.66666666666663" y="241.96452933151429" width="56.666666666666664" height="42.56480218281038" fill="#34a853" rx="2"/><text x="249.99999999999997" y="236.96452933151429" text-anchor="middle" font-size="11" font-weight="bold" fill="#34a853">1.60x</text><rect x="335" y="166.46389300565005" width="56.666666666666664" height="118.06543850867463" fill="#34a853" rx="2"/><text x="363.3333333333333" y="161.46389300565005" text-anchor="middle" font-size="11" font-weight="bold" fill="#34a853">2.66x</text><rect x="448.33333333333337" y="59.99999999999997" width="56.666666666666664" height="224.5293315143247" fill="#34a853" rx="2"/><text x="476.6666666666667" y="54.99999999999997" text-anchor="middle" font-size="11" font-weight="bold" fill="#34a853">4.17x</text><rect x="561.6666666666665" y="274.3989085948158" width="56.666666666666664" height="10.13042291950887" fill="#34a853" rx="2"/><text x="589.9999999999999" y="269.3989085948158" text-anchor="middle" font-size="11" font-weight="bold" fill="#34a853">1.14x</text><rect x="674.9999999999999" y="213.5028308731405" width="56.666666666666664" height="71.02650064118416" fill="#34a853" rx="2"/><text x="703.3333333333333" y="208.5028308731405" text-anchor="middle" font-size="11" font-weight="bold" fill="#34a853">2.00x</text>
  <text x="765" y="288.52933151432467" font-size="11" fill="#ff6b6b">1x (no speedup)</text><text x="70" y="288.52933151432467" text-anchor="end" font-size="11" fill="#666">1x</text><text x="70" y="253.0586630286494" text-anchor="end" font-size="11" fill="#666">1.5x</text><text x="70" y="217.58799454297406" text-anchor="end" font-size="11" fill="#666">2x</text><text x="70" y="182.11732605729875" text-anchor="end" font-size="11" fill="#666">2.5x</text><text x="70" y="146.64665757162345" text-anchor="end" font-size="11" fill="#666">3x</text><text x="70" y="75.70532060027284" text-anchor="end" font-size="11" fill="#666">4x</text><text x="136.66666666666666" y="340" text-anchor="middle" font-size="11" fill="#333">HMC-1D</text><text x="249.99999999999997" y="340" text-anchor="middle" font-size="11" fill="#333">HMC-10D</text><text x="363.3333333333333" y="340" text-anchor="middle" font-size="11" fill="#333">HMC-50D</text><text x="476.6666666666667" y="340" text-anchor="middle" font-size="11" fill="#333">HMC-100D</text><text x="589.9999999999999" y="340" text-anchor="middle" font-size="11" fill="#333">RWM-10D</text><text x="703.3333333333333" y="340" text-anchor="middle" font-size="11" fill="#333">RWM-50D</text>
</svg>